HIERARCHY
ROOT Hips
{
	OFFSET 0.00 0.00 0.00
	CHANNELS 6 Xposition Yposition Zposition Xrotation Yrotation Zrotation
	JOINT RightUpLeg
	{
		OFFSET -4.47808 0.00000 0.00000
		CHANNELS 3 Xrotation Yrotation Zrotation
		JOINT RightLeg
		{
			OFFSET 0.00000 -16.40577 0.00000
			CHANNELS 3 Xrotation Yrotation Zrotation
			JOINT RightFoot
			{
				OFFSET 0.00000 -14.64414 0.00000
				CHANNELS 3 Xrotation Yrotation Zrotation
				JOINT RightToeBase
				{
					OFFSET 0.00000 -1.50274 5.60831
					CHANNELS 3 Xrotation Yrotation Zrotation
					End Site
					{
						OFFSET 0.00000 0.00000 2.95275
					}
				}
			}
		}
	}
	JOINT LeftUpLeg
	{
		OFFSET 4.47808 0.00000 0.00000
		CHANNELS 3 Xrotation Yrotation Zrotation
		JOINT LeftLeg
		{
			OFFSET 0.00000 -16.40577 0.00000
			CHANNELS 3 Xrotation Yrotation Zrotation
			JOINT LeftFoot
			{
				OFFSET 0.00000 -14.64414 0.00000
				CHANNELS 3 Xrotation Yrotation Zrotation
				JOINT LeftToeBase
				{
					OFFSET 0.00000 -1.50274 5.60831
					CHANNELS 3 Xrotation Yrotation Zrotation
					End Site
					{
						OFFSET 0.00000 0.00000 2.95275
					}
				}
			}
		}
	}
	JOINT Spine
	{
		OFFSET 0.00000 6.06821 0.00000
		CHANNELS 3 Xrotation Yrotation Zrotation
		JOINT RightShoulder
		{
			OFFSET 0.00000 10.01392 0.00000
			CHANNELS 3 Xrotation Yrotation Zrotation
			JOINT RightArm
			{
				OFFSET -7.19022 0.00000 0.00000
				CHANNELS 3 Xrotation Yrotation Zrotation
				JOINT RightForeArm
				{
					OFFSET -10.17747 0.00000 0.00000
					CHANNELS 3 Yrotation Zrotation Xrotation
					JOINT RightHand
					{
						OFFSET -8.39211 0.00000 0.00000
						CHANNELS 3 Xrotation Yrotation Zrotation
						End Site
						{
							OFFSET -3.93700 0.00000 0.00000
						}
						JOINT RightHandThumb1
						{
							OFFSET 0.00000 0.00000 0.00000
							CHANNELS 3 Xrotation Zrotation Yrotation
							End Site
							{
								OFFSET 0.00000 0.00000 3.93700
							}
						}
					}
				}
			}
		}
		JOINT LeftShoulder
		{
			OFFSET 0.00000 10.01392 0.00000
			CHANNELS 3 Xrotation Yrotation Zrotation
			JOINT LeftArm
			{
				OFFSET 7.19022 0.00000 0.00000
				CHANNELS 3 Xrotation Yrotation Zrotation
				JOINT LeftForeArm
				{
					OFFSET 10.17747 0.00000 0.00000
					CHANNELS 3 Yrotation Zrotation Xrotation
					JOINT LeftHand
					{
						OFFSET 8.39211 0.00000 0.00000
						CHANNELS 3 Xrotation Yrotation Zrotation
						End Site
						{
							OFFSET 3.93700 0.00000 0.00000
						}
						JOINT LeftHandThumb1
						{
							OFFSET 0.00000 0.00000 0.00000
							CHANNELS 3 Xrotation Zrotation Yrotation
							End Site
							{
								OFFSET 0.00000 0.00000 3.93700
							}
						}
					}
				}
			}
		}
		JOINT Head
		{
			OFFSET 0.00000 15.77748 0.00000
			CHANNELS 3 Xrotation Yrotation Zrotation
			End Site
			{
				OFFSET 0.00000 4.52755 0.00000
			}
		}
	}
}
MOTION
Frames: 13
Frame Time: 0.008333
 0.1417 32.8320 -2.9393 4.8350 -6.4868 2.7425 -29.9689 -4.6052 -6.3185 84.5790 -0.0000 -0.0000 0.6889 -5.0038 -0.7828 -4.2740 0.0000 0.0000 -1.4060 1.0011 -10.7803 2.8264 -0.0000 0.0000 -11.9929 9.3461 0.4011 8.0002 -0.0000 0.0000 -6.7705 -2.5410 -5.3858 7.0939 -20.9264 -23.0700 -34.1060 -2.0495 47.7888 21.3452 0.0000 3.6865 0.2125 12.1405 -1.0101 32.8623 0.0000 -24.3270 -4.1236 22.9018 26.6037 -36.3059 21.5554 -39.0115 -62.8603 -0.0000 7.3893 -1.6900 2.5067 34.0041 33.1476 -0.0000 26.2537 12.8174 -7.2673 1.0152
 0.1282 32.8344 -2.9384 4.7860 -7.0407 2.7321 -29.9834 -5.0007 -6.4589 84.4805 -0.0000 0.0000 0.5520 -5.4128 -0.5361 -3.7549 -0.0000 -0.0000 -1.3817 1.1350 -10.7574 2.9477 0.0000 -0.0000 -12.1645 9.6935 0.6200 7.8629 -0.0000 -0.0000 -6.6929 -2.3895 -5.3576 7.0985 -20.8450 -23.0065 -34.1927 -1.7432 47.8776 21.5035 0.0000 3.7517 0.1915 12.1641 -0.9090 32.8623 0.0000 -24.3270 -4.0929 22.9179 26.6901 -36.1702 22.2536 -38.7253 -63.1795 -0.0000 7.5278 -1.6848 2.5086 33.9022 33.1476 -0.0000 26.2537 12.8097 -7.2583 1.1134
 0.1152 32.8371 -2.9368 4.7274 -7.5640 2.7026 -29.9801 -5.4443 -6.5886 84.3778 0.0000 0.0000 0.4408 -5.8547 -0.1276 -3.1925 0.0000 0.0000 -1.3523 1.1901 -10.7271 3.0510 -0.0000 0.0000 -12.3336 10.0850 0.9659 7.6348 0.0000 -0.0000 -6.5984 -2.2463 -5.3057 7.0794 -20.8072 -22.9586 -34.2652 -1.3779 47.9854 21.6276 0.0000 3.7595 0.1879 12.1026 -0.8960 32.8623 0.0000 -24.3270 -3.9896 23.0573 26.7263 -36.1929 22.8237 -38.5338 -63.4403 -0.0000 7.6748 -1.7267 2.5603 34.0126 33.1476 -0.0000 26.2537 12.7889 -7.2660 1.1747
 0.1066 32.8410 -2.9347 4.7185 -8.1243 2.7125 -30.0255 -5.8263 -6.7626 84.2766 -0.0000 -0.0000 0.5683 -6.0844 -0.5821 -3.9191 0.0000 -0.0000 -1.3430 1.3585 -10.7386 3.1523 -0.0000 -0.0000 -12.4923 10.3673 1.3410 7.4985 0.0000 0.0000 -6.5852 -2.0603 -5.2809 7.0480 -20.7146 -22.9361 -34.2634 -1.0699 48.0755 21.7645 0.0000 3.7591 0.1822 12.1525 -0.8655 32.8623 0.0000 -24.3270 -3.8332 23.2227 26.7461 -36.1996 23.3482 -38.3437 -63.7339 -0.0000 7.6549 -1.7660 2.6080 34.1209 33.1476 -0.0000 26.2537 12.8330 -7.2939 1.2296
 0.0957 32.8440 -2.9319 4.7075 -8.6598 2.6754 -30.0576 -6.2501 -6.8911 84.1642 -0.0000 0.0000 0.6158 -6.3705 -0.7352 -4.1861 -0.0000 -0.0000 -1.3231 1.5567 -10.6947 3.2334 -0.0000 0.0000 -12.6378 10.6031 1.5937 7.2567 -0.0000 -0.0000 -6.5764 -1.9100 -5.1853 6.9712 -20.5687 -22.9770 -34.2210 -0.8322 48.1649 21.9054 0.0000 3.7933 0.1752 12.1424 -0.8326 32.8623 0.0000 -24.3270 -3.7168 23.3507 26.7631 -36.1626 23.9058 -38.1302 -64.0114 -0.0000 7.7740 -1.8275 2.7211 33.9048 33.1476 -0.0000 26.2537 12.8621 -7.2908 1.2171
 0.0871 32.8485 -2.9306 4.6791 -9.1494 2.6388 -30.0706 -6.7414 -7.0544 84.0535 0.0000 -0.0000 0.6979 -6.6198 -1.1626 -4.4550 -0.0000 -0.0000 -1.3110 1.6558 -10.6687 3.3228 -0.0000 -0.0000 -12.7990 10.9158 1.9541 7.1306 -0.0000 0.0000 -6.5388 -1.7900 -5.0915 6.9484 -20.4843 -22.9876 -34.2399 -0.5767 48.2612 22.0946 0.0000 3.7483 0.1606 12.1083 -0.7654 32.8623 0.0000 -24.3270 -3.6526 23.4336 26.7975 -36.0602 24.4688 -37.9248 -64.2759 -0.0000 7.9353 -1.8376 2.7311 33.9535 33.1476 -0.0000 26.2537 12.9091 -7.3376 1.2014
 0.0774 32.8526 -2.9256 4.6379 -9.6675 2.6066 -30.0645 -7.1845 -7.2018 83.9453 0.0000 0.0000 0.7787 -6.8249 -1.4982 -4.5262 0.0000 0.0000 -1.2599 1.8093 -10.6454 3.4107 0.0000 0.0000 -12.9809 11.1370 2.3554 6.8440 -0.0000 -0.0000 -6.4854 -1.5930 -5.0109 6.9635 -20.4847 -22.9819 -34.3086 -0.3024 48.3852 22.2514 0.0000 3.7436 0.1508 12.0902 -0.7201 32.8623 0.0000 -24.3270 -3.5727 23.5409 26.8289 -36.0179 24.9432 -37.7588 -64.4860 -0.0000 8.1689 -1.9203 2.8579 33.9193 33.1476 -0.0000 26.2537 12.9355 -7.3689 1.2194
 0.0690 32.8576 -2.9198 4.6131 -10.1642 2.5567 -30.0658 -7.6722 -7.3521 83.8186 0.0000 -0.0000 0.7992 -7.1611 -1.5261 -4.5010 0.0000 -0.0000 -1.2246 1.9754 -10.6028 3.4698 -0.0000 -0.0000 -13.0972 11.2851 2.7038 6.2753 0.0000 0.0000 -6.4592 -1.4402 -4.8863 6.9242 -20.4224 -23.0167 -34.3369 -0.0825 48.4874 22.4029 0.0000 3.7959 0.1540 12.0928 -0.7353 32.8623 0.0000 -24.3270 -3.4301 23.6594 26.8065 -36.0151 25.4577 -37.5413 -64.7332 -0.0000 8.3755 -1.9962 2.9770 33.8653 33.1476 -0.0000 26.2537 12.9644 -7.4441 1.1673
 0.0589 32.8630 -2.9169 4.5893 -10.6695 2.5106 -30.0749 -8.1544 -7.4812 83.6769 -0.0000 0.0000 0.9671 -7.4178 -1.9387 -5.0094 -0.0000 0.0000 -1.2084 2.1375 -10.5571 3.5895 0.0000 0.0000 -13.2859 11.4646 3.1543 5.6910 0.0000 0.0000 -6.4194 -1.2641 -4.7797 6.8675 -20.3753 -23.0291 -34.3292 0.1864 48.5726 22.5327 0.0000 3.7745 0.1494 12.1115 -0.7120 32.8623 0.0000 -24.3270 -3.3467 23.7696 26.8140 -35.9747 25.9160 -37.3389 -64.9495 -0.0000 8.5249 -2.1394 3.1630 34.1005 33.1476 -0.0000 26.2537 12.9809 -7.4949 1.1588
 0.0508 32.8692 -2.9125 4.6036 -11.1447 2.4512 -30.1006 -8.6660 -7.6016 83.5025 -0.0000 -0.0000 1.0330 -7.7600 -2.0460 -4.8867 0.0000 0.0000 -1.2478 2.2501 -10.5001 3.7075 0.0000 0.0000 -13.4233 11.6958 3.4439 4.9347 0.0000 0.0000 -6.4438 -1.0911 -4.6324 6.8392 -20.3693 -23.0648 -34.3469 0.4524 48.6745 22.6483 0.0000 3.8219 0.1496 12.1873 -0.7085 32.8623 0.0000 -24.3270 -3.2510 23.8814 26.8059 -35.9997 26.3677 -37.1404 -65.0839 -0.0000 8.7711 -2.0903 3.1543 33.5573 33.1476 -0.0000 26.2537 13.0356 -7.5164 1.0967
 0.0417 32.8755 -2.9048 4.6086 -11.6353 2.3583 -30.0987 -9.2265 -7.7012 83.2896 0.0000 0.0000 1.1276 -8.0601 -2.2132 -4.8081 0.0000 0.0000 -1.3039 2.3529 -10.4074 3.9129 0.0000 0.0000 -13.6788 12.0007 3.7540 5.0964 0.0000 -0.0000 -6.4621 -0.9220 -4.4261 6.7152 -20.2802 -23.1617 -34.2982 0.6361 48.7545 22.7290 0.0000 3.8783 0.1418 12.3468 -0.6630 32.8623 0.0000 -24.3270 -3.1761 24.0075 26.7726 -35.9448 26.7497 -36.9409 -65.2079 -0.0000 8.8956 -2.1567 3.2319 33.7420 33.1476 -0.0000 26.2537 13.0708 -7.5774 0.9646
 0.0338 32.8828 -2.8954 4.6144 -12.1300 2.2873 -30.0813 -9.6806 -7.7825 83.0755 0.0000 0.0000 1.1513 -8.3996 -1.9136 -4.2117 -0.0000 0.0000 -1.3242 2.5080 -10.3353 4.0509 0.0000 0.0000 -13.8727 12.1989 4.1197 4.8816 -0.0000 -0.0000 -6.4913 -0.7494 -4.2479 6.6416 -20.1971 -23.2260 -34.2661 0.8176 48.8314 22.8890 0.0000 3.8891 0.1462 12.2313 -0.6900 32.8623 0.0000 -24.3270 -3.1189 24.1510 26.7604 -35.8981 27.1270 -36.7678 -65.3104 -0.0000 9.0398 -2.1239 3.1688 33.8572 33.1476 -0.0000 26.2537 13.1267 -7.6126 0.8591
 0.0280 32.8903 -2.8854 4.6209 -12.6090 2.2078 -30.0308 -10.1221 -7.8676 82.8556 -0.0000 0.0000 1.1873 -8.5437 -1.6602 -3.9872 0.0000 -0.0000 -1.3583 2.6447 -10.2654 4.2024 0.0000 -0.0000 -14.0275 12.4172 4.5220 3.9665 -0.0000 0.0000 -6.5224 -0.5498 -4.0542 6.6299 -20.1905 -23.2539 -34.2894 1.0411 48.8799 23.0471 0.0000 3.7593 0.1054 12.1433 -0.5012 32.8623 0.0000 -24.3270 -3.0271 24.2834 26.7338 -35.9060 27.5142 -36.6046 -65.4053 -0.0000 9.3965 -2.1690 3.2823 33.4851 33.1476 -0.0000 26.2537 13.2112 -7.7093 0.7635
